<?xml version="1.0" encoding="UTF-8"?>
<svg id="_레이어_1" data-name="레이어_1" xmlns="http://www.w3.org/2000/svg" version="1.1" viewBox="0 0 400 100">
  <!-- Generator: Adobe Illustrator 29.5.0, SVG Export Plug-In . SVG Version: 2.1.0 Build 137)  -->
  <defs>
    <style>
      .st0 {
        fill: #040000;
      }
    </style>
  </defs>
  <path class="st0" d="M40.92,26.58h10.12v40.49h21.05v8.37h-31.18V26.58Z"/>
  <path class="st0" d="M77.96,28.95c0-2.83,2.43-5.13,5.47-5.13s5.4,2.29,5.4,5.13-2.43,5.06-5.4,5.06-5.47-2.29-5.47-5.06ZM78.44,38.8h9.99v36.64h-9.99v-36.64Z"/>
  <path class="st0" d="M106.17,75.44h-9.99v-36.64h9.51v6.41h.4c1.69-4.25,5.6-6.88,11-6.88,7.63,0,12.69,5.2,12.62,13.77v23.35h-9.92v-21.59c0-4.52-2.5-7.22-6.61-7.22s-7.02,2.77-7.02,7.63v21.19Z"/>
  <path class="st0" d="M149.36,53.91c2.63-.17,7.56-.4,9.11-.47v-2.97c-.07-3.04-2.16-4.86-5.87-4.86-3.37,0-5.53,1.55-6.07,4.05h-9.51c.61-6.34,6.14-11.34,15.86-11.34,7.96,0,15.52,3.58,15.52,12.42v24.7h-9.45v-5.06h-.27c-1.82,3.37-5.26,5.74-10.73,5.74-7.02,0-12.21-3.64-12.21-10.93,0-8.16,6.61-10.86,13.63-11.27ZM150.77,69.23c4.52,0,7.76-3.04,7.69-6.88v-2.7c-1.52.07-5.77.3-7.49.47-3.44.34-5.67,1.96-5.67,4.79s2.29,4.32,5.47,4.32Z"/>
  <path class="st0" d="M181.88,45.82h-7.15l3.37-19.23h9.58l-5.8,19.23Z"/>
  <path class="st0" d="M204.55,45.41c-3.24,0-5.74,1.55-5.67,3.78-.07,1.62,1.28,2.9,4.72,3.64l6.55,1.35c7.09,1.48,10.53,4.66,10.59,9.92-.07,7.22-6.55,12.08-16.26,12.08s-15.72-4.45-16.53-11.61h10.05c.47,2.9,2.83,4.39,6.48,4.39s6.07-1.48,6.07-3.85c0-1.89-1.55-3.04-4.99-3.78l-6.07-1.21c-6.95-1.35-10.59-4.99-10.53-10.39-.07-7.02,6.01-11.4,15.45-11.4s14.98,4.39,15.52,11.34h-9.38c-.4-2.56-2.7-4.25-6.01-4.25Z"/>
  <path class="st0" d="M243.02,75.44V26.58h17.41c14.71,0,23.68,9.18,23.68,24.36s-8.97,24.49-23.89,24.49h-17.21ZM259.82,66.73c9.31,0,14.17-4.86,14.17-15.79s-4.86-15.66-14.1-15.66h-6.75v31.45h6.68Z"/>
  <path class="st0" d="M289.78,57.29c0-11.34,6.95-18.96,17.68-18.96,9.65,0,17.21,6.07,17.21,18.56v2.83h-25.03c0,5.53,3.31,8.97,8.43,8.97,3.37,0,5.8-1.48,6.82-3.71h9.51c-1.42,6.75-7.49,11.2-16.53,11.2-11.2,0-18.08-7.29-18.08-18.89ZM315.22,53.44c0-4.45-3.1-7.63-7.56-7.63s-7.86,3.41-8.03,7.63h15.59Z"/>
  <path class="st0" d="M340.93,75.44h-9.99V26.58h9.99v48.85Z"/>
  <path class="st0" d="M348.22,28.95c0-2.83,2.43-5.13,5.47-5.13s5.4,2.29,5.4,5.13-2.43,5.06-5.4,5.06-5.47-2.29-5.47-5.06ZM348.69,38.8h9.99v36.64h-9.99v-36.64Z"/>
</svg>