<svg width="19" height="12" viewBox="0 0 19 12" fill="none" xmlns="http://www.w3.org/2000/svg">
<path id="Vector 263" d="M0.92218 5.12865C0.525487 5.12865 0.203903 5.45023 0.203903 5.84692C0.203903 6.24362 0.525487 6.5652 0.92218 6.5652L0.92218 5.12865ZM18.2583 6.35482C18.5388 6.07432 18.5388 5.61953 18.2583 5.33903L13.6872 0.767942C13.4067 0.487437 12.9519 0.487437 12.6714 0.767942C12.3909 1.04845 12.3909 1.50323 12.6714 1.78374L16.7346 5.84693L12.6714 9.91011C12.3909 10.1906 12.3909 10.6454 12.6714 10.9259C12.9519 11.2064 13.4067 11.2064 13.6872 10.9259L18.2583 6.35482ZM0.92218 6.5652L17.7504 6.5652L17.7504 5.12865L0.92218 5.12865L0.92218 6.5652Z" fill="black"/>
</svg>
