<svg width="16" height="17" viewBox="0 0 16 17" fill="none" xmlns="http://www.w3.org/2000/svg">
<g id="Icon/Outline/location-marker">
<g id="Icon">
<path d="M11.1068 11.4295C10.5176 12.0187 9.28554 13.2508 8.43775 14.0985C7.94645 14.5898 7.15067 14.5901 6.65937 14.0988C5.82634 13.2658 4.61812 12.0576 3.99007 11.4295C2.02484 9.46428 2.02484 6.27802 3.99007 4.31279C5.95529 2.34756 9.14156 2.34756 11.1068 4.31279C13.072 6.27802 13.072 9.46428 11.1068 11.4295Z" stroke="black" stroke-width="1.25807" stroke-linecap="round" stroke-linejoin="round"/>
<path d="M9.43553 7.87115C9.43553 8.91337 8.59065 9.75825 7.54843 9.75825C6.50621 9.75825 5.66132 8.91337 5.66132 7.87115C5.66132 6.82893 6.50621 5.98404 7.54843 5.98404C8.59065 5.98404 9.43553 6.82893 9.43553 7.87115Z" stroke="black" stroke-width="1.25807" stroke-linecap="round" stroke-linejoin="round"/>
</g>
</g>
</svg>
