<svg width="16" height="16" viewBox="0 0 16 16" fill="none" xmlns="http://www.w3.org/2000/svg">
<g id="Icon/Outline/phone">
<path id="Icon" d="M1.8871 3.64528C1.8871 2.95046 2.45036 2.38721 3.14517 2.38721H5.20793C5.47868 2.38721 5.71906 2.56046 5.80468 2.81732L6.74686 5.64386C6.84585 5.94083 6.71141 6.2654 6.43142 6.4054L5.01152 7.11535C5.70487 8.65316 6.94378 9.89207 8.48159 10.5854L9.19154 9.16552C9.33154 8.88553 9.65611 8.75109 9.95309 8.85008L12.7796 9.79226C13.0365 9.87788 13.2097 10.1183 13.2097 10.389V12.4518C13.2097 13.1466 12.6465 13.7098 11.9517 13.7098H11.3226C6.11153 13.7098 1.8871 9.48541 1.8871 4.27431V3.64528Z" stroke="black" stroke-width="1.25807" stroke-linecap="round" stroke-linejoin="round"/>
</g>
</svg>
