<svg width="19" height="19" viewBox="0 0 19 19" fill="none" xmlns="http://www.w3.org/2000/svg">
<g id="Icon_instagram" clip-path="url(#clip0_2504_1852)">
<path id="Vector" d="M5.30494 0C2.39292 0 0 2.38964 0 5.30494V12.7363C0 15.6483 2.38964 18.0412 5.30494 18.0412H12.7363C15.6483 18.0412 18.0412 15.6516 18.0412 12.7363V5.30576C18.0412 2.39292 15.6516 0 12.7363 0H5.30494ZM5.30494 1.64011H12.7363C13.2177 1.63946 13.6946 1.73382 14.1395 1.91776C14.5845 2.10171 14.9887 2.37163 15.3292 2.71207C15.6696 3.05251 15.9395 3.45678 16.1235 3.90171C16.3074 4.34664 16.4018 4.82349 16.4011 5.30494V12.7363C16.4018 13.2177 16.3074 13.6946 16.1235 14.1395C15.9395 14.5845 15.6696 14.9887 15.3292 15.3292C14.9887 15.6696 14.5845 15.9395 14.1395 16.1235C13.6946 16.3074 13.2177 16.4018 12.7363 16.4011H5.30576C4.82424 16.4019 4.3473 16.3076 3.90228 16.1237C3.45725 15.9398 3.05289 15.6699 2.71236 15.3295C2.37183 14.989 2.10184 14.5847 1.91784 14.1397C1.73384 13.6947 1.63946 13.2178 1.64011 12.7363C1.64011 12.7363 1.64087 5.78729 1.64011 5.30576C1.63936 4.82424 1.73363 4.3473 1.91753 3.90228C2.10142 3.45725 2.37133 3.05289 2.71178 2.71236C3.05223 2.37183 3.45653 2.10184 3.90152 1.91784C4.3465 1.73384 4.82342 1.63946 5.30494 1.64011ZM13.8639 3.4344C13.7662 3.43396 13.6694 3.45288 13.579 3.49007C13.4887 3.52725 13.4066 3.58196 13.3375 3.65104C13.2685 3.72012 13.2138 3.80219 13.1766 3.89253C13.1394 3.98287 13.1205 4.07968 13.1209 4.17737C13.1209 4.59067 13.4506 4.92034 13.8639 4.92034C13.9616 4.92088 14.0585 4.90204 14.149 4.8649C14.2394 4.82777 14.3216 4.77308 14.3907 4.70399C14.4599 4.6349 14.5147 4.55278 14.5519 4.46239C14.5891 4.372 14.6081 4.27513 14.6077 4.17737C14.6081 4.07961 14.5891 3.98273 14.5519 3.89234C14.5147 3.80195 14.4599 3.71983 14.3907 3.65075C14.3216 3.58166 14.2394 3.52696 14.149 3.48983C14.0585 3.45269 13.9616 3.43385 13.8639 3.4344ZM9.02062 4.10028C6.31443 4.10028 4.10028 6.31443 4.10028 9.02062C4.10028 11.7268 6.31443 13.941 9.02062 13.941C11.7268 13.941 13.941 11.7268 13.941 9.02062C13.941 6.31443 11.7268 4.10028 9.02062 4.10028ZM9.02062 5.74039C10.8436 5.74039 12.3008 7.19763 12.3008 9.02062C12.3008 10.8436 10.8436 12.3008 9.02062 12.3008C7.19763 12.3008 5.74039 10.8436 5.74039 9.02062C5.74039 7.19763 7.19763 5.74039 9.02062 5.74039Z" fill="#A7A7A7"/>
</g>
<defs>
<clipPath id="clip0_2504_1852">
<rect width="18.0412" height="18.0412" fill="white"/>
</clipPath>
</defs>
</svg>
