<svg width="18" height="17" viewBox="0 0 18 17" fill="none" xmlns="http://www.w3.org/2000/svg">
<g id="Mail outline" clip-path="url(#clip0_2504_1846)">
<path id="Vector" d="M15.4919 14.8752C13.8122 14.8752 12.1749 14.5216 10.5801 13.8142C8.98482 13.1074 7.57206 12.1728 6.34185 11.0104C5.11112 9.84854 4.12154 8.51426 3.3731 7.00758C2.62414 5.50139 2.24966 3.95511 2.24966 2.36873C2.24966 2.14738 2.32779 1.96292 2.48404 1.81535C2.64029 1.66778 2.8356 1.59399 3.06998 1.59399H6.23404C6.41633 1.59399 6.57909 1.64933 6.72232 1.76001C6.86555 1.87069 6.95018 2.01211 6.97623 2.18427L7.48404 4.76674C7.51008 4.9389 7.50696 5.09557 7.47466 5.23675C7.44185 5.37841 7.36685 5.50458 7.24966 5.61526L5.37466 7.42299C5.92154 8.3084 6.60513 9.13848 7.42545 9.91322C8.24576 10.688 9.15071 11.3582 10.1403 11.9239L11.9762 10.1899C12.0934 10.0792 12.2465 9.99611 12.4356 9.94052C12.6241 9.88543 12.8096 9.87018 12.9919 9.89477L15.6872 10.4113C15.8695 10.4482 16.0192 10.531 16.1364 10.6599C16.2536 10.7893 16.3122 10.9401 16.3122 11.1122V14.1005C16.3122 14.3219 16.234 14.5063 16.0778 14.6539C15.9215 14.8015 15.7262 14.8752 15.4919 14.8752Z" fill="#A7A7A7"/>
</g>
<defs>
<clipPath id="clip0_2504_1846">
<rect width="18" height="17" fill="white"/>
</clipPath>
</defs>
</svg>
