<svg width="17" height="17" viewBox="0 0 17 17" fill="none" xmlns="http://www.w3.org/2000/svg">
<g id="Icon_facebook" clip-path="url(#clip0_2504_1854)">
<path id="Vector" d="M1.60542 0C0.77236 0 0.0824585 0.689902 0.0824585 1.52296V15.2296C0.0824585 16.0627 0.77236 16.7526 1.60542 16.7526H15.3121C16.1451 16.7526 16.835 16.0627 16.835 15.2296V1.52296C16.835 0.689902 16.1451 0 15.3121 0H1.60542ZM1.60542 1.52296H15.3121V15.2296H11.3615V10.0896H13.3368L13.6223 7.80518H11.3623V6.32943C11.3623 5.66389 11.5252 5.21157 12.4801 5.21157H13.7175V3.14111C13.5066 3.11446 12.7748 3.06953 11.9334 3.06953C10.1782 3.06953 8.98265 4.1257 8.98265 6.09185V7.80518H6.98376V10.0896H8.98188V15.2296H1.60542V1.52296Z" fill="#A7A7A7"/>
</g>
<defs>
<clipPath id="clip0_2504_1854">
<rect width="16.7526" height="16.7526" fill="white" transform="translate(0.0824585)"/>
</clipPath>
</defs>
</svg>
