<svg width="27" height="27" viewBox="0 0 27 27" fill="none" xmlns="http://www.w3.org/2000/svg">
<g clip-path="url(#clip0_2804_831)">
<path d="M17.1083 15.7076H16.2363L15.9273 15.4095C17.0089 14.1513 17.6602 12.5177 17.6602 10.7407C17.6602 6.77829 14.4483 3.56641 10.4858 3.56641C6.52341 3.56641 3.31152 6.77829 3.31152 10.7407C3.31152 14.7032 6.52341 17.915 10.4858 17.915C12.2629 17.915 13.8964 17.2638 15.1547 16.1822L15.4527 16.4912V17.3632L20.9714 22.8708L22.616 21.2263L17.1083 15.7076ZM10.4858 15.7076C7.73752 15.7076 5.51901 13.489 5.51901 10.7407C5.51901 7.99241 7.73752 5.77389 10.4858 5.77389C13.2342 5.77389 15.4527 7.99241 15.4527 10.7407C15.4527 13.489 13.2342 15.7076 10.4858 15.7076Z" fill="#8E8E8E"/>
</g>
<defs>
<clipPath id="clip0_2804_831">
<rect width="26.4898" height="26.4898" fill="white" transform="translate(0 0.254883)"/>
</clipPath>
</defs>
</svg>
